<svg xmlns="http://www.w3.org/2000/svg" xmlns:xlink="http://www.w3.org/1999/xlink" version="1.1" x="0px" y="0px" viewBox="0 0 100 100" enable-background="new 0 0 100 100" xml:space="preserve"><g><g><g><g><path d="M81.4,42.8c6.5,1.7,10.4,6.8,10.4,13.9c0,8.8-5.7,14.5-14.5,14.5c-3.1,0-5.9-0.6-8.5-1.8c-3.4,6.4-12.3,10.7-22.6,10.7      c-10.9,0-20.5-5-23.2-12.1c-8.8,1.3-16.4-5.7-16.4-14.5c0-7.8,5.9-14.1,13.4-14.6c1.1-12.2,11-21.6,23.1-21.6      c7.1,0,13.6,3.2,18,8.8c2.1-1.1,4.5-1.7,6.9-1.7c7.9,0,13.8,6.5,13.8,15.1C81.8,40.6,81.6,41.7,81.4,42.8z M89.9,56.8      c0-6.5-3.6-11-9.9-12.2L79,44.3l0.3-1c0.4-1.2,0.6-2.5,0.6-3.8c0-7.5-5.1-13.1-11.9-13.1c-2.3,0-4.6,0.7-6.6,1.9l-0.2,0.1h-0.8      L60.1,28c-4-5.5-10.2-8.7-17-8.7c-11.3,0-20.6,9.1-21.2,20.6l0,0.9h-0.9c-6.8,0-12.4,5.7-12.4,12.7c0,7.8,7,14.1,14.9,12.4      l0.8-0.2l0.3,0.8c2.1,6.7,11.2,11.6,21.7,11.6c9.8,0,18.5-4.3,21.3-10.4l0.4-0.9l0.9,0.5c2.5,1.3,5.3,2,8.5,2      C86.6,69.3,89.9,62.8,89.9,56.8z"></path><path d="M70.1,48.3c1.1-0.1,1.1,1.6,0,1.7c-2.2,0.2-4.4,0.5-6.5,0.7c-1.1,0.1-1.1-1.6,0-1.7C65.7,48.7,67.9,48.5,70.1,48.3z"></path><path d="M63,34c0.7-0.9,2.2,0,1.5,0.9c-1.3,1.8-2.6,3.5-4,5.3c-0.7,0.9-2.2,0-1.5-0.9C60.4,37.5,61.7,35.7,63,34z"></path><path d="M44.1,62.5c0.2,1.2,0.3,2.4,0.3,3.5v0.2c0,1.7,1.4,3.1,3.1,3.1h1.8c1.5,0,2.8-1.1,3.1-2.6c-0.1,0-0.1,0-0.2,0      c-1.8,0-3.5,0-5.3,0c-1.1,0-1.1-1.7,0-1.7c1.8,0,3.5,0,5.3,0c0.1,0,0.2,0,0.3,0.1c0.1-2.5,0.7-5.7,1.5-6.8l0.1-0.1      c0,0,0.5-0.6,0.6-0.6c2-1.7,3-4,3-6.8c0-5-4.1-9.1-9.1-9.1s-9.1,4.1-9.1,9.1c0,2.8,1.1,5.1,3.1,6.8l0.1,0.1l0.5,0.6      c0.3,0.5,0.7,1.5,0.9,2.6c0.1,0,0.2-0.1,0.3-0.1c1.8,0,3.5,0,5.3,0c1.1,0,1.1,1.7,0,1.7C47.6,62.5,45.9,62.5,44.1,62.5z       M59.5,50.7c0,3.4-1.2,6.2-3.6,8.2l-0.4,0.5c-0.4,0.8-1.1,4-1.1,6.6v0.2c0,2.8-2.3,5.1-5.1,5.1h-1.8c-2.8,0-5.1-2.3-5.1-5.1      v-0.2c0-2.6-0.7-5.8-1.1-6.6L40.9,59c-2.4-2.1-3.7-4.9-3.7-8.3c0-6.1,5-11.1,11.1-11.1C54.5,39.6,59.5,44.5,59.5,50.7z"></path><path d="M49.1,27.9c0,2.2,0,4.4,0,6.6c0,1.1-1.7,1.1-1.7,0c0-2.2,0-4.4,0-6.6C47.4,26.7,49.1,26.7,49.1,27.9z"></path><path d="M38.1,39.3c0.7,0.9-0.8,1.7-1.5,0.9c-1.3-1.7-2.6-3.5-4-5.3C32,34,33.5,33.1,34.1,34C35.5,35.7,36.8,37.5,38.1,39.3z"></path><path d="M33.6,49c1.1,0.1,1.1,1.9,0,1.7c-2.2-0.2-4.4-0.5-6.5-0.7c-1.1-0.1-1.1-1.8,0-1.7C29.3,48.5,31.4,48.7,33.6,49z"></path></g></g></g></g></svg>