<svg xmlns="http://www.w3.org/2000/svg" xmlns:xlink="http://www.w3.org/1999/xlink" version="1.1" x="0px" y="0px" viewBox="0 0 91 91" enable-background="new 0 0 91 91" xml:space="preserve"><g><path fill="#000000" d="M83.881,64.448H29.859c-1.456,0-2.64-1.184-2.64-2.64V14.196c0-1.456,1.185-2.641,2.64-2.641h54.021   c1.457,0,2.641,1.185,2.641,2.641v47.612C86.521,63.265,85.338,64.448,83.881,64.448z M29.859,13.175   c-0.563,0-1.02,0.458-1.02,1.021v47.612c0,0.563,0.458,1.021,1.02,1.021h54.021c0.564,0,1.021-0.458,1.021-1.021V14.196   c0-0.563-0.457-1.021-1.021-1.021H29.859z M82.859,60.786h-51.98V24.378h51.98V60.786z M32.499,59.167H81.24v-33.17H32.499V59.167z    M79.611,22.024c-1.795,0-3.254-1.459-3.254-3.252s1.459-3.252,3.254-3.252c1.791,0,3.248,1.459,3.248,3.252   S81.402,22.024,79.611,22.024z M79.611,17.14c-0.9,0-1.635,0.732-1.635,1.633s0.734,1.633,1.635,1.633   c0.898,0,1.629-0.732,1.629-1.633S80.51,17.14,79.611,17.14z M72.438,22.024c-1.795,0-3.254-1.459-3.254-3.252   s1.459-3.252,3.254-3.252c1.793,0,3.25,1.459,3.25,3.252S74.23,22.024,72.438,22.024z M72.438,17.14   c-0.9,0-1.635,0.732-1.635,1.633s0.734,1.633,1.635,1.633s1.631-0.732,1.631-1.633S73.338,17.14,72.438,17.14z M65.266,22.024   c-1.793,0-3.25-1.459-3.25-3.252s1.457-3.252,3.25-3.252c1.795,0,3.254,1.459,3.254,3.252S67.061,22.024,65.266,22.024z    M65.266,17.14c-0.9,0-1.631,0.732-1.631,1.633s0.73,1.633,1.631,1.633s1.635-0.732,1.635-1.633S66.166,17.14,65.266,17.14z"></path><path fill="#000000" d="M69.83,51.955h-3.689c-0.924,0-1.674-0.751-1.674-1.674v-2.143c-0.773-0.281-1.498-0.662-2.168-1.138   l-2.094,1.21c-0.764,0.446-1.852,0.155-2.293-0.622l-1.84-3.185c-0.223-0.383-0.285-0.835-0.17-1.269   c0.115-0.435,0.393-0.797,0.781-1.021l1.859-1.073c-0.096-0.533-0.143-1.063-0.143-1.579c0-0.273,0.014-0.555,0.045-0.859   l-2.098-1.215c-0.799-0.459-1.074-1.486-0.613-2.29l1.842-3.192c0.441-0.769,1.514-1.063,2.293-0.613l1.857,1.071   c0.627-0.525,1.318-0.962,2.066-1.305v-2.426c0-0.924,0.75-1.675,1.672-1.675h3.689c0.926,0,1.678,0.751,1.678,1.675v2.143   c0.771,0.283,1.496,0.663,2.164,1.138l2.1-1.206c0.734-0.438,1.836-0.164,2.285,0.607l1.844,3.193   c0.461,0.801,0.189,1.83-0.607,2.296l-1.863,1.071c0.096,0.536,0.145,1.067,0.145,1.587c0,0.273-0.016,0.555-0.045,0.851l2.1,1.22   c0.377,0.211,0.654,0.566,0.773,0.996c0.121,0.436,0.064,0.893-0.16,1.286l-1.848,3.195c-0.293,0.517-0.85,0.841-1.453,0.841l0,0   c-0.295,0-0.584-0.079-0.84-0.228l-1.854-1.07c-0.627,0.524-1.318,0.961-2.064,1.304v2.424   C71.508,51.204,70.756,51.955,69.83,51.955z M62.338,44.97l0.512,0.416c0.787,0.637,1.68,1.104,2.652,1.389l0.584,0.17v3.337   l3.744,0.055c0.035,0,0.059-0.022,0.059-0.055v-2.748c-0.01-0.038-0.016-0.074-0.02-0.111l-0.072-0.623l0.586-0.225   c0.949-0.365,1.799-0.903,2.527-1.601l0.439-0.42l2.891,1.67l1.922-3.214l-2.4-1.456c-0.029-0.008-0.057-0.018-0.082-0.028   l-0.604-0.238l0.102-0.641c0.068-0.434,0.102-0.82,0.102-1.184c0-0.584-0.076-1.191-0.225-1.806l-0.145-0.59l2.895-1.664   l-1.824-3.275l-2.461,1.354c-0.021,0.021-0.045,0.04-0.068,0.059l-0.506,0.391l-0.498-0.402c-0.785-0.636-1.68-1.104-2.654-1.39   l-0.58-0.171v-3.335l-3.748-0.056l-0.051,2.808c0.006,0.032,0.012,0.064,0.016,0.097l0.084,0.632l-0.596,0.229   c-0.949,0.365-1.799,0.903-2.527,1.601l-0.439,0.42l-2.893-1.667l-1.92,3.211l2.395,1.451c0.023,0.007,0.045,0.014,0.066,0.021   l0.625,0.228l-0.102,0.657c-0.07,0.462-0.104,0.843-0.104,1.198c0,0.581,0.076,1.186,0.225,1.796l0.143,0.59l-2.895,1.669   l1.826,3.268l2.459-1.354c0.016-0.016,0.033-0.03,0.049-0.044L62.338,44.97z M67.65,44.298c-2.672,0-4.844-2.169-4.844-4.835   c0-2.671,2.172-4.843,4.844-4.843c2.668,0,4.84,2.172,4.84,4.843C72.49,42.129,70.318,44.298,67.65,44.298z M67.65,36.239   c-1.777,0-3.225,1.446-3.225,3.224c0,1.773,1.447,3.216,3.225,3.216c1.775,0,3.221-1.442,3.221-3.216   C70.871,37.686,69.426,36.239,67.65,36.239z"></path><g><rect x="52.408" y="17.225" fill="#000000" width="4.98" height="1.619"></rect><rect x="31.689" y="17.225" fill="#000000" width="17.498" height="1.619"></rect></g><g><path fill="#000000" d="M55.16,57.34l-0.619-1.498l1.41-0.581l-0.994-4.085l-4.053,0.348l-0.221-0.563    c-0.342-0.876-0.738-1.71-1.178-2.479l-0.268-0.468l2.643-3.435l-2.902-3.041l-3.298,2.301l-0.474-0.388    c-0.731-0.6-1.502-1.137-2.289-1.595l-0.466-0.272l0.563-4.223l-4.034-1.178l-1.652,3.534l-0.607-0.102    c-0.449-0.075-0.903-0.125-1.359-0.16l0.125-1.615c0.313,0.024,0.608,0.054,0.889,0.089l1.723-3.688l6.704,1.955l-0.604,4.54    c0.529,0.329,1.048,0.689,1.553,1.077l3.441-2.401l4.82,5.055l-2.836,3.686c0.281,0.529,0.545,1.083,0.787,1.654l4.234-0.363    l1.658,6.784L55.16,57.34z"></path><path fill="#000000" d="M46.07,55.313c-0.039-0.233-0.088-0.467-0.145-0.7c-0.143-0.589-0.329-1.17-0.553-1.727l1.504-0.604    c0.252,0.629,0.462,1.284,0.623,1.947c0.065,0.269,0.121,0.537,0.168,0.806L46.07,55.313z M44.535,51.182    c-0.43-0.727-0.935-1.412-1.501-2.037l1.2-1.088c0.64,0.706,1.21,1.48,1.695,2.301L44.535,51.182z M41.654,47.839    c-0.656-0.533-1.368-1.001-2.116-1.39l0.748-1.438c0.845,0.439,1.648,0.968,2.389,1.569L41.654,47.839z M37.792,45.704    c-0.801-0.271-1.63-0.459-2.465-0.559l0.192-1.609c0.946,0.113,1.885,0.326,2.792,0.633L37.792,45.704z"></path><path fill="#000000" d="M35.271,81.391l-1.714-4.143c-0.705-0.018-1.357-0.064-1.97-0.142l-1.724,3.685l-6.703-1.959l0.602-4.536    c-0.534-0.334-1.055-0.696-1.557-1.082l-3.438,2.399l-4.818-5.053l2.837-3.68c-0.285-0.534-0.55-1.09-0.791-1.662l-4.23,0.361    l-1.655-6.778l4.303-1.777c0.01-0.622,0.049-1.236,0.116-1.837l-3.826-1.797l1.96-6.699l4.541,0.606    c0.338-0.564,0.687-1.089,1.053-1.586l-2.371-3.4l5.043-4.826l3.49,2.688l-0.988,1.283l-2.389-1.839l-3.037,2.902l2.26,3.241    l-0.372,0.472c-0.556,0.706-1.066,1.471-1.559,2.339l-0.27,0.475l-4.241-0.566l-1.175,4.035l3.646,1.712l-0.086,0.594    c-0.128,0.881-0.188,1.801-0.178,2.736l0.006,0.548l-4.023,1.663l0.994,4.079l4.051-0.345l0.219,0.566    c0.337,0.871,0.734,1.707,1.178,2.482l0.268,0.469l-2.643,3.429l2.898,3.041l3.296-2.3l0.474,0.388    c0.724,0.593,1.496,1.132,2.295,1.602l0.463,0.272l-0.56,4.218l4.034,1.18l1.653-3.53l0.606,0.101    c0.848,0.141,1.785,0.211,2.863,0.216l0.54,0.002l1.592,3.851l4.084-0.993l-0.331-3.866l0.56-0.222    c0.967-0.384,1.818-0.794,2.602-1.254l0.472-0.277l3.292,2.538l3.042-2.907l-2.256-3.235L48.07,68.8    c0.543-0.692,1.061-1.472,1.538-2.317l1.41,0.797c-0.41,0.727-0.85,1.411-1.31,2.04l2.373,3.402l-5.049,4.829l-3.541-2.729    c-0.56,0.307-1.151,0.592-1.787,0.862l0.347,4.056L35.271,81.391z"></path><path fill="#000000" d="M34.065,71.604c-6.288,0-12.033-4.348-13.602-10.798c-1.051-4.319,0.01-8.942,2.837-12.366l1.249,1.031    c-2.503,3.032-3.442,7.126-2.512,10.952c1.625,6.682,8.306,10.821,14.891,9.216c2.195-0.534,4.201-1.684,5.802-3.323l1.159,1.131    c-1.813,1.857-4.087,3.16-6.578,3.767C36.226,71.477,35.138,71.604,34.065,71.604z"></path></g><g><rect x="15.488" y="28.08" fill="#000000" width="9.432" height="1.619"></rect><rect x="9.413" y="28.08" fill="#000000" width="4.032" height="1.619"></rect><rect x="3" y="32.056" fill="#000000" width="21.919" height="1.619"></rect><g><g><g><rect x="11.062" y="23.79" fill="#000000" width="2.025" height="1.619"></rect><rect x="15.889" y="23.79" fill="#000000" width="4.203" height="1.619"></rect><rect x="22.894" y="23.79" fill="#000000" width="2.025" height="1.619"></rect></g></g></g></g></g></svg>