<svg xmlns="http://www.w3.org/2000/svg" xmlns:xlink="http://www.w3.org/1999/xlink" version="1.1" x="0px" y="0px" viewBox="0 0 100 100" enable-background="new 0 0 100 100" xml:space="preserve"><g><path d="M90,11H10c-2.206,0-4,1.794-4,4v74h88V15C94,12.794,92.206,11,90,11z M91,86H9V15c0-0.551,0.449-1,1-1h80   c0.552,0,1,0.449,1,1V86z"></path><path d="M85,23.5H15c-0.829,0-1.5,0.671-1.5,1.5s0.671,1.5,1.5,1.5h70c0.828,0,1.5-0.671,1.5-1.5S85.828,23.5,85,23.5z"></path><circle cx="16.25" cy="18.75" r="1.25"></circle><circle cx="21.25" cy="18.75" r="1.25"></circle><circle cx="26.25" cy="18.75" r="1.25"></circle><path d="M35,31H17.5c-2.206,0-4,1.794-4,4v42.5c0,2.206,1.794,4,4,4H35c2.206,0,4-1.794,4-4V35C39,32.794,37.206,31,35,31z    M36,77.5c0,0.552-0.449,1-1,1H17.5c-0.551,0-1-0.448-1-1V35c0-0.551,0.449-1,1-1H35c0.551,0,1,0.449,1,1V77.5z"></path><path d="M82.5,31h-35c-2.206,0-4,1.794-4,4v7.5c0,2.206,1.794,4,4,4h35c2.206,0,4-1.794,4-4V35C86.5,32.794,84.706,31,82.5,31z    M83.5,42.5c0,0.551-0.448,1-1,1h-35c-0.551,0-1-0.449-1-1V35c0-0.551,0.449-1,1-1h35c0.552,0,1,0.449,1,1V42.5z"></path><path d="M82.5,48.5h-35c-2.206,0-4,1.794-4,4V60c0,2.206,1.794,4,4,4h35c2.206,0,4-1.794,4-4v-7.5   C86.5,50.294,84.706,48.5,82.5,48.5z M83.5,60c0,0.552-0.448,1-1,1h-35c-0.551,0-1-0.448-1-1v-7.5c0-0.552,0.449-1,1-1h35   c0.552,0,1,0.448,1,1V60z"></path><path d="M82.5,66h-35c-2.206,0-4,1.794-4,4v7.5c0,2.206,1.794,4,4,4h35c2.206,0,4-1.794,4-4V70C86.5,67.794,84.706,66,82.5,66z    M83.5,77.5c0,0.552-0.448,1-1,1h-35c-0.551,0-1-0.448-1-1V70c0-0.552,0.449-1,1-1h35c0.552,0,1,0.448,1,1V77.5z"></path></g></svg>